<svg xmlns="http://www.w3.org/2000/svg" xmlns:xlink="http://www.w3.org/1999/xlink" width="205.414" height="192.436" viewBox="0 0 205.414 192.436">
  <defs>
    <linearGradient id="linear-gradient" x1="0.5" y1="1" x2="0.5" gradientUnits="objectBoundingBox">
      <stop offset="0" stop-color="gray" stop-opacity="0.251"/>
      <stop offset="0.54" stop-color="gray" stop-opacity="0.122"/>
      <stop offset="1" stop-color="gray" stop-opacity="0.102"/>
    </linearGradient>
    <linearGradient id="linear-gradient-2" x1="0.5" y1="1" x2="0.5" y2="0" xlink:href="#linear-gradient"/>
    <linearGradient id="linear-gradient-3" x1="1.241" y1="1.124" x2="1.241" y2="0.124" xlink:href="#linear-gradient"/>
    <linearGradient id="linear-gradient-4" x1="0.5" y1="1" x2="0.5" y2="0" xlink:href="#linear-gradient"/>
    <linearGradient id="linear-gradient-5" x1="1.307" y1="2.047" x2="1.307" y2="1.047" xlink:href="#linear-gradient"/>
    <linearGradient id="linear-gradient-6" x1="0.5" y1="1" x2="0.5" y2="0" xlink:href="#linear-gradient"/>
    <linearGradient id="linear-gradient-7" x1="0.5" y1="1" x2="0.5" y2="0" xlink:href="#linear-gradient"/>
    <linearGradient id="linear-gradient-8" x1="0.5" y1="1" x2="0.5" y2="0" xlink:href="#linear-gradient"/>
    <linearGradient id="linear-gradient-9" x1="0.5" y1="1" x2="0.5" y2="0" xlink:href="#linear-gradient"/>
  </defs>
  <g id="Group_208" data-name="Group 208" transform="translate(-79.97 -73.582)">
    <g id="Group_47" data-name="Group 47" transform="translate(127.667 73.582)">
      <path id="Path_359" data-name="Path 359" d="M522.551,521.917c0-10.676-7.163-19.594-16.533-20.591s-17.868,6.252-19.62,16.736l-56.047-1.724.615,10.917s-7.992,20.908,34.011,26.479v21.132h48.558V539.732C519.115,536.027,522.546,529.248,522.551,521.917Z" transform="translate(-413.892 -391.831)" fill="url(#linear-gradient)"/>
      <path id="Path_360" data-name="Path 360" d="M439.6,574.626s-7.653,20.022,32.572,25.364v20.246h46.5V566.619L439,564.17Z" transform="translate(-420.599 -438.743)" fill="#be7c5e"/>
      <path id="Path_361" data-name="Path 361" d="M404.465,179h0c-2.524,4.516-7.792,5.873-11.789,3.037l-24.969-18.655c-3.983-2.862-5.18-8.834-2.679-13.367h0c2.524-4.51,7.784-5.866,11.78-3.037l24.969,18.655C405.764,168.49,406.965,174.463,404.465,179Z" transform="translate(-362.225 -126.667)" fill="url(#linear-gradient-2)"/>
      <path id="Path_362" data-name="Path 362" d="M408.193,181.858h0c-2.346,4.2-7.242,5.459-10.958,2.824l-23.217-17.354c-3.7-2.66-4.815-8.211-2.49-12.425h0c2.346-4.2,7.242-5.459,10.958-2.824L405.7,169.423C409.407,172.082,410.523,177.641,408.193,181.858Z" transform="translate(-367.336 -130.545)" fill="#be7c5e"/>
      <ellipse id="Ellipse_105" data-name="Ellipse 105" cx="17.464" cy="19.8" rx="17.464" ry="19.8" transform="translate(71.783 110.968)" fill="#be7c5e"/>
      <path id="Path_476" data-name="Path 476" d="M15.108.049H57.293c8.344,0,14.3-1.983,14.3,7.477l.42,130.766c0,9.46-6.371,9.925-14.715,9.925H15.108C6.764,148.218,0,140.549,0,131.088L.57,9.342C.57-.118,6.764.049,15.108.049Z" transform="translate(16.452 0.124)" fill="url(#linear-gradient-3)"/>
      <path id="Path_475" data-name="Path 475" d="M16.873.072h36.8c9.291,0,16.08-2.479,16.08,8.055l1.34,127.917c0,10.534-8.13,8.194-17.42,8.194h-36.8c-9.291,0-17.088,2.34-17.088-8.194L.694,8.686C.694-1.848,7.582.072,16.873.072Z" transform="translate(17.378 2.104)" fill="#fff"/>
      <path id="Path_363" data-name="Path 363" d="M493.692,94.28a5.991,5.991,0,0,1-5.63,5.507H463.734a5.992,5.992,0,0,1-5.627-5.507h-12.89a2.87,2.87,0,0,0-2.677,3.032V228.178a2.871,2.871,0,0,0,2.674,3.035h61.56a2.87,2.87,0,0,0,2.677-3.032V97.315a2.871,2.871,0,0,0-2.675-3.035Z" transform="translate(-423.344 -88.488)" fill="#4f44ff"/>
      <rect id="Rectangle_93" data-name="Rectangle 93" width="15.699" height="1.113" rx="0.556" transform="translate(44.901 7.516)" fill="#dbdbdb"/>
      <ellipse id="Ellipse_106" data-name="Ellipse 106" cx="0.588" cy="0.667" rx="0.588" ry="0.667" transform="translate(63.346 7.294)" fill="#dbdbdb"/>
      <path id="Path_364" data-name="Path 364" d="M730.159,392.988h0c-5.068,1.329-8.547-2.419-9.719-8.163L708.795,335.8c-1.159-5.766,2.006-11.511,7.085-12.86h0c5.086-1.314,10.153,2.275,11.342,8.033l9.5,50.294C737.9,387.01,735.225,391.659,730.159,392.988Z" transform="translate(-629.624 -258.726)" fill="url(#linear-gradient-4)"/>
      <path id="Path_478" data-name="Path 478" d="M9.634,0c4.419-.129,7.9,3.777,7.768,8.723l-1.4,53.61c-.129,4.947-3.815,9.061-8.234,9.19S-.125,67.749,0,62.8L1.4,9.193C1.528,4.246,5.215.132,9.634,0Z" transform="translate(77.372 68.859) rotate(-13.01)" fill="#be7c5e"/>
      <rect id="Rectangle_95" data-name="Rectangle 95" width="66.469" height="17.568" transform="translate(40.167 174.869)" fill="url(#linear-gradient-5)"/>
      <rect id="Rectangle_96" data-name="Rectangle 96" width="62.876" height="13.749" transform="translate(41.964 176.905)" fill="#4d8af0"/>
      <path id="Path_365" data-name="Path 365" d="M390.354,404.736h0c-2.494,4.462-7.7,5.8-11.648,3l-16.745-12.285c-3.936-2.827-5.119-8.728-2.648-13.206h0c2.494-4.463,7.7-5.8,11.648-3l16.745,12.285C391.642,394.357,392.825,400.258,390.354,404.736Z" transform="translate(-357.805 -299.81)" fill="url(#linear-gradient-6)"/>
      <path id="Path_366" data-name="Path 366" d="M393.151,517.338h0c-2.516,4.5-7.767,5.857-11.753,3.03l-10.372-8.575c-3.972-2.852-5.166-8.807-2.672-13.326h0c2.516-4.5,7.767-5.857,11.753-3.03l10.372,8.578C394.449,506.867,395.643,512.819,393.151,517.338Z" transform="translate(-364.806 -386.409)" fill="url(#linear-gradient-7)"/>
      <g id="Group_25" data-name="Group 25" transform="translate(32.454 51.361)" opacity="0.5">
        <ellipse id="Ellipse_107" data-name="Ellipse 107" cx="20.197" cy="22.899" rx="20.197" ry="22.899" fill="url(#linear-gradient-8)"/>
      </g>
      <path id="Path_368" data-name="Path 368" d="M395.51,519.488h0c-2.346,4.2-7.242,5.459-10.958,2.824l-9.674-7.984c-3.7-2.66-4.815-8.211-2.49-12.425h0c2.346-4.2,7.242-5.459,10.958-2.823l9.672,8C396.712,509.738,397.825,515.278,395.51,519.488Z" transform="translate(-368.003 -389.198)" fill="#be7c5e"/>
      <path id="Path_369" data-name="Path 369" d="M392.861,406.753h0c-2.346,4.2-7.242,5.459-10.958,2.823l-15.755-11.559c-3.7-2.66-4.815-8.211-2.49-12.425h0c2.346-4.2,7.242-5.459,10.958-2.824l15.755,11.559C394.073,396.989,395.185,402.54,392.861,406.753Z" transform="translate(-361.233 -302.501)" fill="#be7c5e"/>
      <path id="Path_370" data-name="Path 370" d="M393.934,292.989h0c-2.506,4.482-7.734,5.829-11.7,3.014l-21.221-15.666c-3.953-2.841-5.141-8.768-2.659-13.267h0c2.506-4.482,7.734-5.829,11.7-3.014l21.221,15.666C395.228,282.563,396.416,288.49,393.934,292.989Z" transform="translate(-357.057 -213.943)" fill="url(#linear-gradient-9)"/>
      <path id="Path_371" data-name="Path 371" d="M396.991,295.437h0c-2.346,4.2-7.242,5.459-10.958,2.824l-19.876-14.673c-3.7-2.66-4.815-8.211-2.49-12.425h0c2.346-4.2,7.242-5.459,10.958-2.824L394.5,283.012C398.2,285.672,399.316,291.223,396.991,295.437Z" transform="translate(-361.241 -217.205)" fill="#be7c5e"/>
    </g>
    <g id="Group_207" data-name="Group 207">
      <g id="phone-call-button" transform="translate(114.747 165.739)">
        <g id="call">
          <path id="Path_431" data-name="Path 431" d="M1.784,3.866A7.716,7.716,0,0,0,5.055,7.137l1.09-1.09a.4.4,0,0,1,.5-.1,5.184,5.184,0,0,0,1.784.3.468.468,0,0,1,.5.5V8.426a.468.468,0,0,1-.5.5A8.419,8.419,0,0,1,0,.5.468.468,0,0,1,.5,0H2.23a.468.468,0,0,1,.5.5,5.613,5.613,0,0,0,.3,1.784.61.61,0,0,1-.1.5Z" fill="#fff"/>
        </g>
      </g>
      <path id="Path_470" data-name="Path 470" d="M296.845,74.33c-13.169-.519-25.712-5.338-37.687-10.612s-23.84-11.118-36.7-13.9c-8.265-1.8-17.721-2.052-24.382,2.973-6.406,4.822-8.48,13.169-9.593,20.916-.839,5.828-1.333,11.961.954,17.416,1.595,3.784,4.425,6.974,6.382,10.6,6.809,12.623,2,28.19-5.383,40.518-3.462,5.782-7.476,11.3-10.149,17.453s-3.905,13.207-1.569,19.486c2.317,6.217,7.836,10.9,13.816,14.186,12.144,6.679,26.463,8.59,40.412,9.671,30.892,2.4,61.949,1.352,92.923.319,11.465-.384,22.977-.773,34.254-2.781,6.263-1.116,12.728-2.89,17.272-7.166a17.929,17.929,0,0,0,3.338-21.427c-6.487-11.418-24.422-14.253-28.957-26.506-2.494-6.744.069-14.256,3.7-20.511,7.779-13.421,20.82-25.192,21.509-40.529.477-10.542-5.8-21.084-15.5-26.068-10.161-5.222-24.251-4.565-31.746,4.082C322.038,71.362,308.472,74.787,296.845,74.33Z" transform="translate(-97.518 37.406)" fill="#4f44ff" opacity="0.1"/>
      <g id="_023-lock" data-name="023-lock" transform="translate(167.593 113.598)">
        <g id="Group_49" data-name="Group 49" transform="translate(0 0)">
          <g id="Group_48" data-name="Group 48">
            <path id="Path_473" data-name="Path 473" d="M98.222,5.865,81.758.055a.961.961,0,0,0-.643,0L64.651,5.865A.969.969,0,0,0,64,6.779V18.4c0,15.04,2.23,20.537,17,27.982a.969.969,0,0,0,.874,0c14.766-7.445,17-12.942,17-27.982V6.779A.97.97,0,0,0,98.222,5.865ZM96.932,18.4c0,14.405-1.837,19.068-15.5,26.032-13.659-6.964-15.5-11.626-15.5-26.032V7.465L81.437,2l15.5,5.469V18.4Z" transform="translate(-64.004 0.001)" fill="#fff"/>
            <path id="Path_474" data-name="Path 474" d="M192,133.816a5.8,5.8,0,0,0,2.1,4.469l-1.124,7.986a.969.969,0,0,0,.959,1.1h7.748a.969.969,0,0,0,.959-1.1l-1.124-7.986a5.81,5.81,0,1,0-9.52-4.469Zm9.685,0a3.872,3.872,0,0,1-1.738,3.229.971.971,0,0,0-.424.942l1.048,7.451h-5.52l1.048-7.451a.971.971,0,0,0-.424-.942,3.873,3.873,0,1,1,6.01-3.229Z" transform="translate(-180.381 -116.383)" fill="#fff"/>
          </g>
        </g>
      </g>
      <path id="Path_472" data-name="Path 472" d="M539.06,419.035a9.425,9.425,0,1,1-9.425-9.425A9.425,9.425,0,0,1,539.06,419.035Zm-10.514,4.989,6.991-6.991a.607.607,0,0,0,0-.86l-.86-.854a.606.606,0,0,0-.859,0l-5.7,5.7-2.662-2.669a.61.61,0,0,0-.86,0l-.86.865a.61.61,0,0,0,0,.86l3.953,3.952a.607.607,0,0,0,.86,0Z" transform="translate(-332.53 -268.374)" fill="#3acc6c"/>
    </g>
  </g>
</svg>
