<svg xmlns="http://www.w3.org/2000/svg" width="341.706" height="285.883" viewBox="0 0 341.706 285.883">
  <g id="Group_14" data-name="Group 14" transform="translate(-0.004)">
    <path id="Path_146" data-name="Path 146" d="M328.19,109.966a1.461,1.461,0,0,1-.814-1.766.7.7,0,0,0,.032-.162h0a.733.733,0,0,0-1.316-.486h0a.7.7,0,0,0-.081.144,1.461,1.461,0,0,1-1.766.814.7.7,0,0,0-.162-.032h0a.733.733,0,0,0-.486,1.316h0a.7.7,0,0,0,.144.081,1.461,1.461,0,0,1,.814,1.766.7.7,0,0,0-.032.162h0a.733.733,0,0,0,1.316.486h0a.7.7,0,0,0,.081-.144,1.461,1.461,0,0,1,1.766-.814.7.7,0,0,0,.162.032h0a.733.733,0,0,0,.486-1.316h0A.7.7,0,0,0,328.19,109.966Z" transform="translate(-262.466 -90.898)" fill="#4d8af0" opacity="0.5"/>
    <path id="Path_147" data-name="Path 147" d="M182.19,434.966a1.461,1.461,0,0,1-.814-1.766.7.7,0,0,0,.032-.162h0a.733.733,0,0,0-1.316-.486h0a.7.7,0,0,0-.081.144,1.461,1.461,0,0,1-1.766.814.7.7,0,0,0-.162-.032h0a.733.733,0,0,0-.486,1.316h0a.7.7,0,0,0,.144.081,1.461,1.461,0,0,1,.814,1.766.7.7,0,0,0-.032.162h0a.733.733,0,0,0,1.316.486h0a.7.7,0,0,0,.081-.144,1.461,1.461,0,0,1,1.766-.814.7.7,0,0,0,.162.032h0a.733.733,0,0,0,.486-1.316h0A.705.705,0,0,0,182.19,434.966Z" transform="translate(-174.517 -286.674)" fill="#4d8af0" opacity="0.5"/>
    <circle id="Ellipse_36" data-name="Ellipse 36" cx="2.386" cy="2.386" r="2.386" transform="translate(295.19 98.608)" fill="#f55f44" opacity="0.5"/>
    <circle id="Ellipse_37" data-name="Ellipse 37" cx="2.386" cy="2.386" r="2.386" transform="translate(45.887 269.184)" fill="#f55f44" opacity="0.5"/>
    <circle id="Ellipse_38" data-name="Ellipse 38" cx="2.386" cy="2.386" r="2.386" transform="translate(335.746 190.456)" fill="#f55f44" opacity="0.5"/>
    <path id="Path_148" data-name="Path 148" d="M867.19,138.966a1.461,1.461,0,0,1-.814-1.766.7.7,0,0,0,.032-.162h0a.733.733,0,0,0-1.316-.486h0a.7.7,0,0,0-.081.144,1.461,1.461,0,0,1-1.766.814.7.7,0,0,0-.162-.032h0a.733.733,0,0,0-.486,1.316h0a.7.7,0,0,0,.144.081,1.461,1.461,0,0,1,.814,1.766.7.7,0,0,0-.032.162h0a.733.733,0,0,0,1.316.486h0a.7.7,0,0,0,.081-.144,1.461,1.461,0,0,1,1.766-.814.7.7,0,0,0,.162.032h0a.733.733,0,0,0,.486-1.316h0A.7.7,0,0,0,867.19,138.966Z" transform="translate(-587.153 -108.367)" fill="#4d8af0" opacity="0.5"/>
    <path id="Path_149" data-name="Path 149" d="M967.19,766.966a1.461,1.461,0,0,1-.814-1.766.7.7,0,0,0,.032-.162h0a.733.733,0,0,0-1.316-.486h0a.706.706,0,0,0-.081.144,1.461,1.461,0,0,1-1.766.814.7.7,0,0,0-.162-.032h0a.733.733,0,0,0-.485,1.316h0a.707.707,0,0,0,.144.081,1.461,1.461,0,0,1,.814,1.766.712.712,0,0,0-.032.162h0a.733.733,0,0,0,1.316.486h0a.7.7,0,0,0,.081-.144,1.461,1.461,0,0,1,1.766-.814.7.7,0,0,0,.162.032h0a.733.733,0,0,0,.485-1.316h0a.7.7,0,0,0-.144-.081Z" transform="translate(-647.392 -486.667)" fill="#4d8af0" opacity="0.5"/>
    <path id="Path_150" data-name="Path 150" d="M175.19,244.966a1.461,1.461,0,0,1-.814-1.766.7.7,0,0,0,.032-.162h0a.733.733,0,0,0-1.316-.486h0a.7.7,0,0,0-.081.144,1.461,1.461,0,0,1-1.766.814.7.7,0,0,0-.162-.032h0a.733.733,0,0,0-.486,1.316h0a.7.7,0,0,0,.144.081,1.461,1.461,0,0,1,.814,1.766.7.7,0,0,0-.032.162h0a.733.733,0,0,0,1.316.486h0a.7.7,0,0,0,.081-.144,1.461,1.461,0,0,1,1.766-.814.7.7,0,0,0,.162.032h0a.733.733,0,0,0,.486-1.316h0A.7.7,0,0,0,175.19,244.966Z" transform="translate(-170.3 -172.22)" fill="#4d8af0" opacity="0.5"/>
    <circle id="Ellipse_39" data-name="Ellipse 39" cx="2.386" cy="2.386" r="2.386" transform="translate(29.187 110.536)" fill="#47e6b1" opacity="0.5"/>
    <circle id="Ellipse_40" data-name="Ellipse 40" cx="2.386" cy="2.386" r="2.386" transform="translate(336.939 129.622)" fill="#47e6b1" opacity="0.5"/>
    <g id="Group_9" data-name="Group 9" transform="translate(229.186)" opacity="0.5">
      <rect id="Rectangle_58" data-name="Rectangle 58" width="1.193" height="6.759" transform="translate(2.783)" fill="#47e6b1"/>
      <rect id="Rectangle_59" data-name="Rectangle 59" width="1.193" height="6.759" transform="translate(6.759 2.783) rotate(90)" fill="#47e6b1"/>
    </g>
    <g id="Group_10" data-name="Group 10" transform="translate(233.56 264.81)" opacity="0.5">
      <rect id="Rectangle_60" data-name="Rectangle 60" width="1.193" height="6.759" transform="translate(2.783)" fill="#47e6b1"/>
      <rect id="Rectangle_61" data-name="Rectangle 61" width="1.193" height="6.759" transform="translate(6.759 2.783) rotate(90)" fill="#47e6b1"/>
    </g>
    <g id="Group_11" data-name="Group 11" transform="translate(7.716 279.124)" opacity="0.5">
      <rect id="Rectangle_62" data-name="Rectangle 62" width="1.193" height="6.759" transform="translate(2.783)" fill="#47e6b1"/>
      <rect id="Rectangle_63" data-name="Rectangle 63" width="1.193" height="6.759" transform="translate(6.759 2.783) rotate(90)" fill="#47e6b1"/>
    </g>
    <g id="Group_12" data-name="Group 12" transform="translate(279.285 157.454)" opacity="0.5">
      <rect id="Rectangle_64" data-name="Rectangle 64" width="1.193" height="6.759" transform="translate(2.783)" fill="#47e6b1"/>
      <rect id="Rectangle_65" data-name="Rectangle 65" width="1.193" height="6.759" transform="translate(6.759 2.783) rotate(90)" fill="#47e6b1"/>
    </g>
    <path id="Path_151" data-name="Path 151" d="M793.989,118.489l2.562,2.348,3.629-5.338,1.281,1.068-4.911,6.405-3.629-4.056Z" transform="translate(-477.643 -69.576)" fill="#47e6b1" opacity="0.5"/>
  </g>
</svg>
