<svg xmlns="http://www.w3.org/2000/svg" xmlns:xlink="http://www.w3.org/1999/xlink" width="212.007" height="212.007" viewBox="0 0 212.007 212.007">
  <defs>
    <linearGradient id="linear-gradient" x1="0.5" y1="1" x2="0.5" gradientUnits="objectBoundingBox">
      <stop offset="0" stop-color="gray" stop-opacity="0.251"/>
      <stop offset="0.535" stop-color="gray" stop-opacity="0.122"/>
      <stop offset="1" stop-color="gray" stop-opacity="0.102"/>
    </linearGradient>
    <linearGradient id="linear-gradient-10" x1="0.5" y1="1" x2="0.5" y2="0" xlink:href="#linear-gradient"/>
  </defs>
  <g id="Group_20" data-name="Group 20" transform="translate(0)">
    <path id="Path_308" data-name="Path 308" d="M448.007,192a106.57,106.57,0,0,1-1.4,17.275c-.076.472-.157.944-.242,1.415a106.151,106.151,0,0,1-58.826,77.062l-.443.21q-1.778.839-3.6,1.613c-.326.137-.649.274-.978.408a105.135,105.135,0,0,1-20.365,6.107c-.309.061-.617.117-.926.172a106.377,106.377,0,0,1-19.148,1.742h-.294q-.856,0-1.709-.02c-.108,0-.215,0-.323-.006a106.331,106.331,0,0,1-19.057-2.114c-.306-.064-.612-.128-.917-.2a104.714,104.714,0,0,1-16.547-4.98c-.329-.125-.652-.256-.978-.39q-1.817-.729-3.6-1.532l-.443-.2a106.16,106.16,0,0,1-60.573-77.875c-.084-.472-.166-.944-.242-1.415a107.2,107.2,0,0,1-.012-34.474c.1-.655.218-1.313.341-1.966a104.521,104.521,0,0,1,3.407-13.524q.218-.677.446-1.354a106.036,106.036,0,0,1,204.694,14.878c.122.652.236,1.31.341,1.966A106.618,106.618,0,0,1,448.007,192Z" transform="translate(-236 -86)" fill="#4f44ff" opacity="0.1"/>
    <path id="Path_309" data-name="Path 309" d="M534.409,222.76h-.565c-.115,0-.4-.452-.4-.582v-.525c0-.41-.464-1.535-.874-1.535s-.874,1.125-.874,1.535v.525c0,.185-.143.582-.317.582h-.565c-.41,0-1.535.318-1.535.728s1.125.728,1.535.728h.674c.214,0,.208.22.208.331v.7c0,.41.464,1.535.874,1.535s.874-1.125.874-1.535v-.7c0-.093.188-.331.291-.331h.674c.41,0,1.535-.318,1.535-.728S534.819,222.76,534.409,222.76Z" transform="translate(-443.871 -181.061)" fill="#2196f3"/>
    <path id="Path_310" data-name="Path 310" d="M258.383,323.935h-.747c-.152,0-.528-.6-.528-.768v-.694c0-.542-.613-2.027-1.154-2.027s-1.154,1.486-1.154,2.027v.694c0,.244-.188.768-.419.768h-.747c-.542,0-2.027.42-2.027.962s1.486.962,2.027.962h.891c.282,0,.275.29.275.438v.926c0,.542.613,2.027,1.154,2.027s1.154-1.486,1.154-2.027V326.3c0-.123.248-.438.384-.438h.891c.542,0,2.027-.42,2.027-.962S258.924,323.935,258.383,323.935Z" transform="translate(-247.062 -252.171)" fill="url(#linear-gradient)"/>
    <path id="Path_311" data-name="Path 311" d="M532.383,219.935h-.747c-.152,0-.528-.6-.528-.768v-.694c0-.542-.613-2.027-1.154-2.027s-1.154,1.486-1.154,2.027v.694c0,.244-.189.768-.419.768h-.747c-.542,0-2.027.42-2.027.962s1.486.962,2.027.962h.891c.282,0,.275.29.275.438v.926c0,.542.613,2.027,1.154,2.027s1.154-1.486,1.154-2.027V222.3c0-.123.248-.438.384-.438h.891c.542,0,2.027-.42,2.027-.962S532.924,219.935,532.383,219.935Z" transform="translate(-441.268 -178.457)" fill="url(#linear-gradient)"/>
    <path id="Path_312" data-name="Path 312" d="M809.383,266.935h-.747c-.152,0-.528-.6-.528-.768v-.694c0-.542-.613-2.027-1.154-2.027s-1.154,1.486-1.154,2.027v.694c0,.244-.188.768-.419.768h-.747c-.542,0-2.027.42-2.027.962s1.486.962,2.027.962h.891c.282,0,.275.29.275.438v.926c0,.542.613,2.027,1.154,2.027s1.154-1.486,1.154-2.027V269.3c0-.123.248-.438.384-.438h.891c.542,0,2.027-.42,2.027-.962S809.924,266.935,809.383,266.935Z" transform="translate(-637.6 -211.77)" fill="url(#linear-gradient)"/>
    <path id="Path_313" data-name="Path 313" d="M707.848,255.1h-.36c-.073,0-.288-.285-.288-.368V254.4c0-.261-.321-.978-.582-.978s-.582.717-.582.978v.335c0,.118-.007.368-.118.368h-.36c-.261,0-.978.176-.978.437s.717.437.978.437h.43c.136,0,.048.2.048.269v.447c0,.261.321.978.582.978s.582-.717.582-.978v-.446c0-.059.153-.269.219-.269h.43c.261,0,.978-.176.978-.437S708.11,255.1,707.848,255.1Z" transform="translate(-568.12 -204.663)" fill="#1976d2"/>
    <path id="Path_314" data-name="Path 314" d="M355.314,308.564h-.587c-.12,0-.469-.465-.469-.6v-.546c0-.426-.524-1.594-.949-1.594s-.949,1.168-.949,1.594v.546c0,.192-.011.6-.192.6h-.587c-.426,0-1.594.286-1.594.712s1.168.712,1.594.712h.7c.222,0,.079.322.079.438v.728c0,.426.524,1.594.949,1.594s.949-1.168.949-1.594v-.728c0-.1.249-.438.356-.438h.7c.426,0,1.594-.286,1.594-.712S355.74,308.564,355.314,308.564Z" transform="translate(-316.79 -241.808)" fill="url(#linear-gradient)"/>
    <path id="Path_315" data-name="Path 315" d="M705.314,251.564h-.587c-.12,0-.469-.465-.469-.6v-.546c0-.426-.524-1.594-.949-1.594s-.949,1.168-.949,1.594v.546c0,.192-.011.6-.192.6h-.587c-.426,0-1.594.286-1.594.712s1.168.712,1.594.712h.7c.222,0,.079.322.079.438v.728c0,.426.524,1.594.949,1.594s.949-1.168.949-1.594v-.728c0-.1.249-.438.356-.438h.7c.426,0,1.594-.286,1.594-.712S705.74,251.564,705.314,251.564Z" transform="translate(-564.864 -201.407)" fill="url(#linear-gradient)"/>
    <path id="Path_316" data-name="Path 316" d="M357.848,312.1h-.36c-.073,0-.288-.285-.288-.368V311.4c0-.261-.321-.978-.582-.978s-.582.717-.582.978v.335c0,.118-.007.368-.118.368h-.36c-.261,0-.978.176-.978.437s.717.437.978.437h.43c.136,0,.048.2.048.269v.447c0,.261.321.978.582.978s.582-.717.582-.978v-.446c0-.059.153-.269.219-.269h.43c.261,0,.978-.176.978-.437S358.109,312.1,357.848,312.1Z" transform="translate(-320.047 -245.064)" fill="#1976d2"/>
    <circle id="Ellipse_65" data-name="Ellipse 65" cx="2.184" cy="2.184" r="2.184" transform="translate(118.403 41.408)" fill="#64b5f6"/>
    <circle id="Ellipse_66" data-name="Ellipse 66" cx="0.728" cy="0.728" r="0.728" transform="translate(115.491 63.638)" fill="#0071bc"/>
    <circle id="Ellipse_67" data-name="Ellipse 67" cx="2.026" cy="2.026" r="2.026" transform="translate(31.912 45.777)" fill="#64b5f6"/>
    <circle id="Ellipse_68" data-name="Ellipse 68" cx="1.013" cy="1.013" r="1.013" transform="translate(15.021 54.459)" fill="#64b5f6"/>
    <circle id="Ellipse_69" data-name="Ellipse 69" cx="1.013" cy="1.013" r="1.013" transform="translate(98.6 75.135)" fill="#82a9ff"/>
    <circle id="Ellipse_70" data-name="Ellipse 70" cx="1.893" cy="1.893" r="1.893" transform="translate(22.386 92.347)" fill="#82a9ff"/>
    <circle id="Ellipse_71" data-name="Ellipse 71" cx="1.768" cy="1.768" r="1.768" transform="translate(60.054 41.594)" fill="url(#linear-gradient)"/>
    <circle id="Ellipse_72" data-name="Ellipse 72" cx="1.768" cy="1.768" r="1.768" transform="translate(60.345 63.726)" fill="url(#linear-gradient)"/>
    <circle id="Ellipse_73" data-name="Ellipse 73" cx="1.768" cy="1.768" r="1.768" transform="translate(153.244 36.934)" fill="url(#linear-gradient)"/>
    <circle id="Ellipse_74" data-name="Ellipse 74" cx="1.768" cy="1.768" r="1.768" transform="translate(193.723 68.386)" fill="url(#linear-gradient)"/>
    <circle id="Ellipse_75" data-name="Ellipse 75" cx="1.08" cy="1.08" r="1.08" transform="translate(60.742 42.282)" fill="#0d47a1"/>
    <circle id="Ellipse_76" data-name="Ellipse 76" cx="2.184" cy="2.184" r="2.184" transform="translate(86.66 57.134)" fill="#64b5f6"/>
    <path id="Path_317" data-name="Path 317" d="M328.193,458.19l-24.98.516-6.916-7.948,37.24-.67Z" transform="translate(-210.01 -319.014)" fill="#e0e0e0"/>
    <path id="Path_318" data-name="Path 318" d="M333.537,440.782H296.3l7.432-3.975,21.883-.723Z" transform="translate(-210.01 -309.088)" fill="#e0e0e0"/>
    <path id="Path_319" data-name="Path 319" d="M526.086,552.909a20.826,20.826,0,0,1-1.9,7.391c-.146.349-.294.7-.443,1.04l-.463,1.048a21.888,21.888,0,0,1-2.912,5.224c-.073.087-.146.175-.221.259a9.093,9.093,0,0,1-.978.946,6.694,6.694,0,0,1-3.888,1.651c-2.778.146-5.187-1.791-7.289-3.617q-3.761-3.259-7.522-6.526-1.293-1.118-2.586-2.242c-.183-.157-.367-.317-.55-.478v35.6h-.644l.384,6.031.8,12.621a106.377,106.377,0,0,1-19.148,1.742l-.53-14.342-.151-4.086-.073-1.966h-.6l-.052,1.069-.236,4.983-.684,14.316a106.316,106.316,0,0,1-19.057-2.114l.76-12.2.379-6.049h-.376V557.03a31.545,31.545,0,0,1-3.7,4.089,80.553,80.553,0,0,1-8.6,6.724,18.349,18.349,0,0,1-5.923,3.09,7.668,7.668,0,0,1-.978.172,5.942,5.942,0,0,1-2.723-.294,5.434,5.434,0,0,1-.874-.4c-.154-.084-.3-.175-.443-.271-2.181-1.488-3.329-4.342-4.228-6.937-1.089-3.145-2.2-6.439-1.733-9.735a14.97,14.97,0,0,1,2.158-5.565c.708-1.179,1.511-2.315,2.306-3.428a2.979,2.979,0,0,1,1.45-1.273h0l.044-.009a1.159,1.159,0,0,1,.224-.032,1.787,1.787,0,0,1,.218.006,2.9,2.9,0,0,1,1.564,1.01l2.033,2.094.979,1c.052.055.1.111.16.166l1.29,1.328c.842-1.453,1.689-2.915,2.583-4.345a37.606,37.606,0,0,1,6.352-8,21.089,21.089,0,0,1,4.138-2.97,17.389,17.389,0,0,1,4.115-1.628,7.184,7.184,0,0,1,3.73-.306,2.064,2.064,0,0,1,1.29,1.742.085.085,0,0,1,.006.029,8.15,8.15,0,0,1,.134,1.558c0,.323,0,.646,0,.973h27.672c-.026-.839-.049-1.759-.006-2.531.009-.186.023-.364.041-.53a2.2,2.2,0,0,1,.315-1.086,1.377,1.377,0,0,1,1.075-.4,13.189,13.189,0,0,1,4.022,1.168,26.478,26.478,0,0,1,3.675,1.712,26.946,26.946,0,0,1,12.353,14.625,5.694,5.694,0,0,1,1.078-2.1,6.5,6.5,0,0,1,1.156-1.124,7.092,7.092,0,0,1,2.312-1.165,6.532,6.532,0,0,1,1.8-.277,5.774,5.774,0,0,1,.979.064,5.531,5.531,0,0,1,1.517.446,6.576,6.576,0,0,1,2.079,1.526c.157.169.3.344.443.524a9.362,9.362,0,0,1,1.724,4.033A10.428,10.428,0,0,1,526.086,552.909Z" transform="translate(-372.652 -401.598)" fill="#fff"/>
    <path id="Path_320" data-name="Path 320" d="M566.8,428.369h-3.727c-2.195-7.762-9.025-14.038-17.115-14.038s-14.92,6.276-17.115,14.038h-3.633v8.051h3.108c1.339,8.443,8.726,14.038,17.64,14.038s16.3-5.6,17.64-14.038h3.2Z" transform="translate(-440.985 -318.714)" fill="#fff"/>
    <circle id="Ellipse_77" data-name="Ellipse 77" cx="14.451" cy="14.451" r="14.451" transform="translate(90.416 100.57)" fill="#4f44ff"/>
    <path id="Path_321" data-name="Path 321" d="M743.032,368.631a3.7,3.7,0,0,1-1.366,2.874V485.456l-.443.21q-1.778.839-3.6,1.613c-.326.137-.649.274-.979.408v-116.5a3.7,3.7,0,1,1,6.383-2.551Z" transform="translate(-590.128 -283.7)" fill="url(#linear-gradient-10)"/>
    <path id="Path_322" data-name="Path 322" d="M743.681,369.729a3.227,3.227,0,0,1-.62,1.907,3.175,3.175,0,0,1-.711.713.163.163,0,0,1-.026.02V486.764q-1.778.839-3.6,1.613V372.5a3.25,3.25,0,1,1,4.954-2.767Z" transform="translate(-591.228 -284.798)" fill="#e0e0e0"/>
    <path id="Path_323" data-name="Path 323" d="M815.815,383.918a70.963,70.963,0,0,1-1.4,15.057c-19.828-29.139-39.656,35.9-59.484,2.218V366.719c19.832,33.688,39.664-31.382,59.5-2.2A151.211,151.211,0,0,1,815.815,383.918Z" transform="translate(-603.808 -277.915)" fill="#4f44ff"/>
    <path id="Path_324" data-name="Path 324" d="M452.354,368.63a3.64,3.64,0,0,1-.175,1.118,3.7,3.7,0,0,1-.847,1.433v117.21c-.329-.125-.652-.256-.979-.39q-1.817-.729-3.6-1.532l-.443-.2V371.5a3.7,3.7,0,1,1,6.04-2.874Z" transform="translate(-384.098 -283.7)" fill="url(#linear-gradient)"/>
    <path id="Path_325" data-name="Path 325" d="M453.008,369.729a3.21,3.21,0,0,1-1.1,2.429,2.99,2.99,0,0,1-.451.338V489.1q-1.817-.729-3.6-1.532v-115.2a.16.16,0,0,1-.026-.02,3.177,3.177,0,0,1-.711-.713,3.25,3.25,0,1,1,5.883-1.907Z" transform="translate(-385.204 -284.798)" fill="#e0e0e0"/>
    <path id="Path_326" data-name="Path 326" d="M298.632,366.719v34.474c-20.411-33.7-40.821,31.442-61.232,2.16a150.053,150.053,0,0,1-1.4-19.435,71.9,71.9,0,0,1,1.389-15.056C257.8,398.186,278.218,333.009,298.632,366.719Z" transform="translate(-236 -277.915)" fill="#4f44ff"/>
    <path id="Path_327" data-name="Path 327" d="M562.75,434.532a14.427,14.427,0,0,1,11.537,5.75,14.452,14.452,0,1,0-24.9,14.21,14.454,14.454,0,0,1,13.362-19.96Z" transform="translate(-456.059 -330.769)" opacity="0.2"/>
    <path id="Path_328" data-name="Path 328" d="M406.909,333.76h-.565c-.115,0-.4-.452-.4-.582v-.525c0-.41-.464-1.535-.874-1.535s-.874,1.125-.874,1.535v.525c0,.185-.143.582-.317.582h-.565c-.41,0-1.535.318-1.535.728s1.125.728,1.535.728h.674c.214,0,.208.22.208.331v.7c0,.41.464,1.535.874,1.535s.874-1.125.874-1.535v-.7c0-.093.188-.331.291-.331h.674c.41,0,1.535-.318,1.535-.728S407.319,333.76,406.909,333.76Z" transform="translate(-353.501 -259.735)" fill="#2196f3"/>
    <circle id="Ellipse_78" data-name="Ellipse 78" cx="1.019" cy="1.019" r="1.019" transform="translate(76.613 93.342)" fill="#0d47a1"/>
    <circle id="Ellipse_79" data-name="Ellipse 79" cx="2.026" cy="2.026" r="2.026" transform="translate(186.112 72.569)" fill="#64b5f6"/>
    <circle id="Ellipse_80" data-name="Ellipse 80" cx="0.728" cy="0.728" r="0.728" transform="translate(110.104 88.683)" fill="#0071bc"/>
    <circle id="Ellipse_81" data-name="Ellipse 81" cx="1.08" cy="1.08" r="1.08" transform="translate(61.033 64.414)" fill="#0d47a1"/>
    <path id="Path_329" data-name="Path 329" d="M811.409,269.76h-.565c-.115,0-.4-.452-.4-.582v-.525c0-.41-.464-1.535-.874-1.535s-.874,1.125-.874,1.535v.525c0,.185-.143.582-.317.582h-.565c-.41,0-1.535.318-1.535.728s1.125.728,1.535.728h.674c.214,0,.208.22.208.331v.7c0,.41.464,1.535.874,1.535s.874-1.125.874-1.535v-.7c0-.093.188-.331.291-.331h.674c.41,0,1.535-.318,1.535-.728S811.819,269.76,811.409,269.76Z" transform="translate(-640.203 -214.373)" fill="#2196f3"/>
    <circle id="Ellipse_82" data-name="Ellipse 82" cx="1.019" cy="1.019" r="1.019" transform="translate(194.411 68.88)" fill="#0d47a1"/>
    <circle id="Ellipse_83" data-name="Ellipse 83" cx="1.019" cy="1.019" r="1.019" transform="translate(153.932 37.719)" fill="#0d47a1"/>
    <circle id="Ellipse_84" data-name="Ellipse 84" cx="2.708" cy="2.708" r="2.708" transform="translate(182.081 64.898)" fill="url(#linear-gradient)"/>
    <circle id="Ellipse_85" data-name="Ellipse 85" cx="2.708" cy="2.708" r="2.708" transform="translate(142.767 69.848)" fill="url(#linear-gradient)"/>
    <circle id="Ellipse_86" data-name="Ellipse 86" cx="2.708" cy="2.708" r="2.708" transform="translate(118.013 41.018)" fill="url(#linear-gradient)"/>
    <circle id="Ellipse_87" data-name="Ellipse 87" cx="2.708" cy="2.708" r="2.708" transform="translate(86.27 56.744)" fill="url(#linear-gradient)"/>
    <circle id="Ellipse_88" data-name="Ellipse 88" cx="2.708" cy="2.708" r="2.708" transform="translate(31.23 45.095)" fill="url(#linear-gradient)"/>
    <circle id="Ellipse_89" data-name="Ellipse 89" cx="2.708" cy="2.708" r="2.708" transform="translate(21.62 91.399)" fill="url(#linear-gradient)"/>
    <circle id="Ellipse_90" data-name="Ellipse 90" cx="1.464" cy="1.464" r="1.464" transform="translate(175.032 37.409)" fill="url(#linear-gradient)"/>
    <circle id="Ellipse_91" data-name="Ellipse 91" cx="1.464" cy="1.464" r="1.464" transform="translate(98.15 74.685)" fill="url(#linear-gradient)"/>
    <circle id="Ellipse_92" data-name="Ellipse 92" cx="1.464" cy="1.464" r="1.464" transform="translate(14.57 54.008)" fill="url(#linear-gradient)"/>
    <circle id="Ellipse_93" data-name="Ellipse 93" cx="1.464" cy="1.464" r="1.464" transform="translate(33.499 90.993)" fill="url(#linear-gradient)"/>
    <circle id="Ellipse_94" data-name="Ellipse 94" cx="1.464" cy="1.464" r="1.464" transform="translate(66.698 86.042)" fill="url(#linear-gradient)"/>
    <circle id="Ellipse_95" data-name="Ellipse 95" cx="1.464" cy="1.464" r="1.464" transform="translate(114.749 63.036)" fill="url(#linear-gradient)"/>
    <circle id="Ellipse_96" data-name="Ellipse 96" cx="1.013" cy="1.013" r="1.013" transform="translate(175.482 37.859)" fill="#82a9ff"/>
    <circle id="Ellipse_97" data-name="Ellipse 97" cx="1.893" cy="1.893" r="1.893" transform="translate(182.848 65.846)" fill="#64b5f6"/>
    <ellipse id="Ellipse_98" data-name="Ellipse 98" cx="8.445" cy="1.456" rx="8.445" ry="1.456" transform="translate(95.811 119.4)" opacity="0.2"/>
    <circle id="Ellipse_99" data-name="Ellipse 99" cx="6.698" cy="6.698" r="6.698" transform="translate(57.952 137.164)" fill="#4f44ff"/>
    <circle id="Ellipse_100" data-name="Ellipse 100" cx="6.698" cy="6.698" r="6.698" transform="translate(142.406 137.164)" fill="#4f44ff"/>
    <rect id="Rectangle_77" data-name="Rectangle 77" width="1.165" height="18.347" transform="translate(94.646 83.58)" fill="#fff"/>
    <rect id="Rectangle_78" data-name="Rectangle 78" width="1.165" height="18.347" transform="translate(115.905 85.036)" fill="#fff"/>
  </g>
</svg>
