<svg xmlns="http://www.w3.org/2000/svg" width="241.23" height="190.719" viewBox="0 0 241.23 190.719">
  <g id="Group_213" data-name="Group 213" transform="translate(-64.77 -62.656)">
    <path id="Path_470" data-name="Path 470" d="M314.51,78.131c-15.118-.6-29.517-6.129-43.265-12.183S243.877,53.186,229.119,50c-9.489-2.064-20.343-2.355-27.99,3.413-7.354,5.536-9.735,15.118-11.013,24.012-.963,6.69-1.53,13.731,1.095,19.993,1.831,4.344,5.08,8.006,7.327,12.17,7.817,14.491,2.291,32.362-6.18,46.515-3.974,6.637-8.583,12.968-11.651,20.037s-4.483,15.162-1.8,22.37c2.66,7.137,9,12.512,15.86,16.285,13.942,7.668,30.379,9.862,46.393,11.1,9.469.735,18.951,1.188,28.705,1.442,25.791.671,51.906-.207,77.97-1.075,13.162-.441,26.378-.887,39.323-3.193,7.19-1.282,14.612-3.317,19.829-8.226a20.582,20.582,0,0,0,3.832-24.6c-7.447-13.107-28.036-16.362-33.242-30.429-2.863-7.742.079-16.366,4.242-23.546,8.93-15.407,23.9-28.921,24.692-46.527.547-12.1-6.656-24.2-17.79-29.926-11.665-6-27.839-5.241-36.444,4.686C343.43,74.724,327.858,78.656,314.51,78.131Z" transform="translate(-112.718 14.012)" fill="#4f44ff" opacity="0.1"/>
    <g id="Group_55" data-name="Group 55" transform="translate(68.166 93.79)">
      <rect id="Rectangle_123" data-name="Rectangle 123" width="97.726" height="72.66" transform="translate(211.008 72.66) rotate(180)" fill="#4f44ff" opacity="0.3"/>
      <rect id="Rectangle_124" data-name="Rectangle 124" width="28.936" height="34.618" transform="translate(175.834 6.658)" fill="#f2f2f2"/>
      <rect id="Rectangle_125" data-name="Rectangle 125" width="27.897" height="2.092" transform="translate(157.987 8.75) rotate(180)" fill="#f2f2f2"/>
      <rect id="Rectangle_126" data-name="Rectangle 126" width="9.877" height="2.092" transform="translate(185.71 48.694) rotate(180)" fill="#f2f2f2"/>
      <rect id="Rectangle_127" data-name="Rectangle 127" width="28.243" height="2.092" transform="translate(204.424 52.498) rotate(180)" fill="#f2f2f2"/>
      <rect id="Rectangle_128" data-name="Rectangle 128" width="40.199" height="2.092" transform="translate(164.571 16.358) rotate(180)" fill="#f2f2f2"/>
      <rect id="Rectangle_129" data-name="Rectangle 129" width="40.199" height="2.092" transform="translate(164.571 22.255) rotate(180)" fill="#f2f2f2"/>
      <rect id="Rectangle_130" data-name="Rectangle 130" width="40.199" height="2.092" transform="translate(164.571 28.151) rotate(180)" fill="#f2f2f2"/>
      <rect id="Rectangle_131" data-name="Rectangle 131" width="40.199" height="2.092" transform="translate(164.571 34.048) rotate(180)" fill="#f2f2f2"/>
      <rect id="Rectangle_132" data-name="Rectangle 132" width="40.199" height="2.092" transform="translate(164.571 39.944) rotate(180)" fill="#f2f2f2"/>
      <rect id="Rectangle_133" data-name="Rectangle 133" width="40.199" height="2.092" transform="translate(164.571 45.841) rotate(180)" fill="#f2f2f2"/>
      <rect id="Rectangle_134" data-name="Rectangle 134" width="40.199" height="2.092" transform="translate(164.571 51.737) rotate(180)" fill="#f2f2f2"/>
      <path id="Path_487" data-name="Path 487" d="M841.791,220.468a4.956,4.956,0,0,1,1.4-.771,33.031,33.031,0,0,1,9.872-2.359c2.935-.229,6.117.043,8.41,2.068a3.11,3.11,0,0,1,.853,1.091,4.368,4.368,0,0,1,.108,2.224,2.714,2.714,0,0,1-.2.837,1.652,1.652,0,0,1-1.728.793c-.66-.077-1.279-.384-1.93-.526a7.884,7.884,0,0,0-1.219-.136l-4.082-.243a27.112,27.112,0,0,0-7.6.263,7.129,7.129,0,0,0-2.2.831c-.569.35-.951.853-1.479.206C841.079,223.609,840.566,221.519,841.791,220.468Z" transform="translate(-661.612 -194.043)" fill="#2f2e41"/>
      <path id="Path_488" data-name="Path 488" d="M867.742,234.466s5.49-2.7,7.572.416-1.136,1.87-1.136,1.87l-3.6,1.247-3.976-.831Z" transform="translate(-681.238 -206.06)" fill="#f2f2f2"/>
      <path id="Path_489" data-name="Path 489" d="M872.741,224.394s.757,3.948.189,4.988,3.218,2.494,3.218,2.494l3.6-1.663s-.947-6.442,0-7.689Z" transform="translate(-685.953 -197.962)" fill="#ffb9b9"/>
      <path id="Path_490" data-name="Path 490" d="M872.741,224.394s.757,3.948.189,4.988,3.218,2.494,3.218,2.494l3.6-1.663s-.947-6.442,0-7.689Z" transform="translate(-685.953 -197.962)" opacity="0.1"/>
      <path id="Path_491" data-name="Path 491" d="M872.649,196.041a5.981,5.981,0,0,1-5.679,6.234,5.065,5.065,0,0,1-1.009-.1,6.18,6.18,0,0,1-4.63-6.876,5.856,5.856,0,0,1,5.977-5.482A6.018,6.018,0,0,1,872.649,196.041Z" transform="translate(-677.152 -173.557)" fill="#ffb9b9"/>
      <path id="Path_492" data-name="Path 492" d="M865.039,250.412H846.927l.411-1.957,1.778-8.5,2.055-1.524,0,0,.965-.717.48-.356s.284.143.612.337c.1.059.192.12.289.185,0,0,0,0,0,0a3.413,3.413,0,0,1,.447.34c.026.027.048.049.071.074.36.4,1.412,2.5,3.152,1.421a2.64,2.64,0,0,0,.255-.175,12.864,12.864,0,0,0,1.294-1.128c.366-.367.6-.651.8-.846a1.273,1.273,0,0,1,.295-.24.52.52,0,0,1,.265-.07c.568,0,1.326,1.246,1.326,1.246l.023.072,0,.006,2.389,7.875Z" transform="translate(-666.113 -208.946)" fill="#f2f2f2"/>
      <path id="Path_493" data-name="Path 493" d="M835.711,246.575H841.2a16.065,16.065,0,0,0-.1-2.085c-.168-1.39-.58-2.729-.84-4.1a18.888,18.888,0,0,1-.331-3.66c0-.169.005-.34.019-.512a2.512,2.512,0,0,1,.3-1.111c.13-.219.308-.405.447-.614a1.431,1.431,0,0,0,.126-.219v0q.026-.057.047-.116a1.019,1.019,0,0,0,.052-.283,1.721,1.721,0,0,0-1.047-1.491,3.585,3.585,0,0,0-2.452-.108,11.107,11.107,0,0,0-2.3,1.035c-.248.133-.494.27-.731.422a3.686,3.686,0,0,0-.774.647,5.632,5.632,0,0,0-1.055,2.5,5.773,5.773,0,0,0-.2,2.13c0,.023.007.048.01.07.206,1.185,1.086,2.075,1.556,3.167a7.572,7.572,0,0,1,.291,4.124c-.01.07-.023.141-.035.211h1.53Z" transform="translate(-654.897 -205.109)" fill="#2f2e41"/>
      <path id="Path_494" data-name="Path 494" d="M908.521,234.743a51.087,51.087,0,0,0-1.5,7.61H899.2q-.307-.919-.612-1.839-.243-.695-.417-1.415a7.406,7.406,0,0,1-.175-1.7c0-.137.005-.276.016-.413a.006.006,0,0,0,0-.008,7.368,7.368,0,0,1,.452-2.106,8.2,8.2,0,0,1,.4-.888c.364-.723.8-1.4,1.2-2.111a10.072,10.072,0,0,0,.636-1.354.007.007,0,0,1,0-.006,5.27,5.27,0,0,0,.359-1.893c-.012-.839-1.3-2.3.1-2.161a9.186,9.186,0,0,1,5.068,2.783c.4.369.792.751,1.175,1.128a4.33,4.33,0,0,1,1.4,2.079,2.423,2.423,0,0,1,.05.415A6.19,6.19,0,0,1,908.521,234.743Z" transform="translate(-705.363 -200.888)" fill="#2f2e41"/>
      <path id="Path_495" data-name="Path 495" d="M871.432,242.321a4.737,4.737,0,0,0-.888-1.572,3.2,3.2,0,0,0-1.357-.755,6.81,6.81,0,0,0-1.991-.313,2.1,2.1,0,0,0-2.072,1.027,2.632,2.632,0,0,0,.212,2.014,1.972,1.972,0,0,0,.561.832,2.9,2.9,0,0,0,1.2.334,5.327,5.327,0,0,1,1.778.884l1.4.932,2.412,1.6c-.064-.042-.041-1.858-.115-2.155A22,22,0,0,0,871.432,242.321Z" transform="translate(-680.002 -210.759)" fill="#ffb9b9"/>
      <path id="Path_496" data-name="Path 496" d="M866.395,183.269a1.572,1.572,0,0,0-.625-.9,3.968,3.968,0,0,0-.132-1.182c-.344-1.116-1.159-1.052-1.927-1.546-.333-.214-.313-.4-.487-.755a2.7,2.7,0,0,0-.984-1.1,3.382,3.382,0,0,0-1.6-.744c-1.226-.092-2.166,1.174-3.338,1.581-.517.179-1.072.186-1.591.356a1.533,1.533,0,0,0-1.115,1.162c-.036.272.027.55-.009.822a3.556,3.556,0,0,1-.792,1.362,3.639,3.639,0,0,0-.055,3.438,4.921,4.921,0,0,0,.368.633,4.177,4.177,0,0,0,.389,1.445,6.918,6.918,0,0,0,2.308,2.53,6.529,6.529,0,0,1-.136-1.079.81.81,0,0,1,.042-.357c.1-.235.372-.3.578-.426a1.665,1.665,0,0,0,.606-1.394c.012-.539-.092-1.078-.04-1.614a.919.919,0,0,1,.275-.649.883.883,0,0,1,.518-.136,5.4,5.4,0,0,0,2.559-.511,3.677,3.677,0,0,1,.8-.442,1.652,1.652,0,0,1,1.7.934c.378.617.566,1.352.915,1.989a1.833,1.833,0,0,0,1.624,1.131.26.26,0,0,0,.2-.1.358.358,0,0,0,.037-.188l.038-2.827A4.673,4.673,0,0,0,866.395,183.269Z" transform="translate(-671.041 -164.034)" fill="#2f2e41"/>
      <path id="Path_497" data-name="Path 497" d="M829.953,256.168q.185,1.669.224,3.35h-4.765v-4.4c.024-.107.05-.211.081-.316a11.591,11.591,0,0,1,1.466-2.73l.08-.131a7.369,7.369,0,0,0,.593-1.174,6.9,6.9,0,0,1,.334-1.261c.565-.36,1.024,1.177,1.1,1.52.277,1.219.518,2.45.7,3.692Q829.874,255.444,829.953,256.168Z" transform="translate(-649.577 -218.051)" fill="#2f2e41"/>
      <path id="Path_498" data-name="Path 498" d="M902.022,256.078H891.083c-.094-.242-.185-.483-.282-.723a21.606,21.606,0,0,0-2.623-4.723,1.3,1.3,0,0,1-.324-.706.644.644,0,0,1,.071-.318,1.891,1.891,0,0,1,.963-.7,3.294,3.294,0,0,0,1-.692,2.379,2.379,0,0,0,.579-.938,2.231,2.231,0,0,0,.073-.323l.152.219c.123.179.248.356.374.533a15.37,15.37,0,0,0,4.221,4.409,6.778,6.778,0,0,0,1.379.645.332.332,0,0,0,.291,0,.4.4,0,0,0,.126-.255c.149-.685.2-1.39.31-2.085a12.664,12.664,0,0,1,1.142-3.61c.31-.633,1.319-2.948,1.958-1.489q.275.631.555,1.265c.116.268.234.534.352.8a5.4,5.4,0,0,1,.57,2.8Q902,253.134,902.022,256.078Z" transform="translate(-697.567 -214.612)" fill="#2f2e41"/>
      <path id="Path_499" data-name="Path 499" d="M842.238,275.027h.948l-.537-1.957-.775-2.821a10.1,10.1,0,0,1-.074,1.428,10.225,10.225,0,0,1-.755,2.823c-.074.173-.154.348-.218.527h1.412Z" transform="translate(-661.424 -233.561)" opacity="0.1"/>
      <path id="Path_500" data-name="Path 500" d="M927.451,265.38a2.218,2.218,0,0,0,.091,1.235,13.587,13.587,0,0,1,.413,3.61.14.14,0,0,1-.031.12.113.113,0,0,1-.109.037,1.41,1.41,0,0,1-1.234-.321Z" transform="translate(-727.331 -229.929)" opacity="0.1"/>
      <rect id="Rectangle_135" data-name="Rectangle 135" width="97.726" height="72.66" transform="translate(0 0.748)" fill="#4f44ff" opacity="0.3"/>
      <rect id="Rectangle_136" data-name="Rectangle 136" width="28.936" height="34.618" transform="translate(6.238 7.405)" fill="#f2f2f2"/>
      <rect id="Rectangle_137" data-name="Rectangle 137" width="27.897" height="2.092" transform="translate(53.021 7.405)" fill="#f2f2f2"/>
      <rect id="Rectangle_138" data-name="Rectangle 138" width="9.877" height="2.092" transform="translate(6.584 47.349)" fill="#f2f2f2"/>
      <rect id="Rectangle_139" data-name="Rectangle 139" width="28.243" height="2.092" transform="translate(6.584 51.153)" fill="#f2f2f2"/>
      <rect id="Rectangle_140" data-name="Rectangle 140" width="40.199" height="2.092" transform="translate(46.437 15.014)" fill="#f2f2f2"/>
      <rect id="Rectangle_141" data-name="Rectangle 141" width="40.199" height="2.092" transform="translate(46.437 20.91)" fill="#f2f2f2"/>
      <rect id="Rectangle_142" data-name="Rectangle 142" width="40.199" height="2.092" transform="translate(46.437 26.807)" fill="#f2f2f2"/>
      <rect id="Rectangle_143" data-name="Rectangle 143" width="40.199" height="2.092" transform="translate(46.437 32.703)" fill="#f2f2f2"/>
      <rect id="Rectangle_144" data-name="Rectangle 144" width="40.199" height="2.092" transform="translate(46.437 38.6)" fill="#f2f2f2"/>
      <rect id="Rectangle_145" data-name="Rectangle 145" width="40.199" height="2.092" transform="translate(46.437 44.496)" fill="#f2f2f2"/>
      <rect id="Rectangle_146" data-name="Rectangle 146" width="40.199" height="2.092" transform="translate(46.437 50.393)" fill="#f2f2f2"/>
      <path id="Path_501" data-name="Path 501" d="M192.171,256.714H188.41q-.434-1.281-.771-2.594a5.4,5.4,0,0,0-1.227-2.745,5.1,5.1,0,0,1-.529-.787,4.017,4.017,0,0,1-.333-2.243,6.335,6.335,0,0,1,.1-.635c.165-.812.44-1.592.671-2.383a.847.847,0,0,1,.672-.611,1.224,1.224,0,0,1,.735.093.888.888,0,0,1,.147.084,2.527,2.527,0,0,1,.8,1.335q1.177,3.469,2.353,6.939.229.673.457,1.35c.225.662.449,1.324.639,2C192.137,256.583,192.154,256.647,192.171,256.714Z" transform="translate(-157.784 -214.5)" fill="#d0cde1"/>
      <path id="Path_502" data-name="Path 502" d="M124,170.532a3.046,3.046,0,0,0-1.974,2.221c-.089.493-.034,1.005-.109,1.5a5.65,5.65,0,0,1-1.753,2.843,4.873,4.873,0,0,0-1.6,2.926c-.061,1.274.781,2.468.635,3.733-.169,1.47-1.584,2.423-1.934,3.855a4.005,4.005,0,0,0,.523,2.83,7.471,7.471,0,0,0,4.064,3.286,15.52,15.52,0,0,0,5.09.728c2.092.024,4.363-.173,5.935-1.689a5.409,5.409,0,0,0,1.578-3.4c.149-1.755-.518-3.569-.058-5.258.29-1.063,1.016-2.034.908-3.137-.106-1.079-.964-1.843-1.553-2.715a11.515,11.515,0,0,1-1.21-2.722l-1.119-3.241a3.843,3.843,0,0,0-.951-1.725c-.917-.783-2.392-.629-3.465-.468A14.839,14.839,0,0,0,124,170.532Z" transform="translate(-105.268 -158.761)" fill="#2f2e41"/>
      <path id="Path_503" data-name="Path 503" d="M149.49,212.132s.109,3.606-.219,3.966,1.314,2.764,1.314,2.764l2.956-.12,1.533-1.322-1.314-1.923s-.547-3.125-.109-3.846S149.49,212.132,149.49,212.132Z" transform="translate(-129.897 -189.68)" fill="#a0616a"/>
      <path id="Path_504" data-name="Path 504" d="M149.49,212.132s.109,3.606-.219,3.966,1.314,2.764,1.314,2.764l2.956-.12,1.533-1.322-1.314-1.923s-.547-3.125-.109-3.846S149.49,212.132,149.49,212.132Z" transform="translate(-129.897 -189.68)" opacity="0.1"/>
      <ellipse id="Ellipse_141" data-name="Ellipse 141" cx="3.941" cy="4.327" rx="3.941" ry="4.327" transform="translate(17.458 15.181)" fill="#a0616a"/>
      <path id="Path_505" data-name="Path 505" d="M123.673,242.128h3.2c.12-.238.232-.485.362-.709v0a1.877,1.877,0,0,1,.582-.67,2.262,2.262,0,0,0,.431-.283,1.263,1.263,0,0,0,.263-.54,9.117,9.117,0,0,0,.36-2.332c.005-.266,0-.536.014-.8a3.689,3.689,0,0,1,.073-.618,5.12,5.12,0,0,1,.473-1.175q.65-1.3,1.3-2.6a1.98,1.98,0,0,0,.088-.761,2.006,2.006,0,0,0-.281-.976c-.061-.12-.126-.24-.2-.356a7.843,7.843,0,0,0-.929-1.3,7.521,7.521,0,0,0-2.644-1.965,1.481,1.481,0,0,1-.355-.19,1.593,1.593,0,0,1-.326-.428c-.347-.573-.769-1.217-1.395-1.181a.789.789,0,0,0-.662-.049.851.851,0,0,0-.1.034,5.982,5.982,0,0,0-.695.4,2.979,2.979,0,0,1-1.871.373.589.589,0,0,1-.218-.061,1.144,1.144,0,0,1-.2-.179,1.074,1.074,0,0,0-1.149-.2,1.05,1.05,0,0,0-.457.354c-.114.158-.194.348-.321.5a1.667,1.667,0,0,1-1.346.4,11.37,11.37,0,0,0-2.958.3,5.431,5.431,0,0,0-2.329,1.236l0,0c-.094.088-.18.177-.267.272a2.184,2.184,0,0,0-.461.723c-.132.373-.114.793-.234,1.172-.132.424-.425.77-.542,1.2a5.2,5.2,0,0,1-.227.974l.019.017c.631.609,1.17,1.408,1.8,2.01a3.893,3.893,0,0,1,.915,1.122,1.96,1.96,0,0,1,.113.3,5.123,5.123,0,0,1,.094,1.107,9.386,9.386,0,0,0,1.941,4.807c.019.029.038.057.059.084Z" transform="translate(-100.253 -199.914)" fill="#d0cde1"/>
      <path id="Path_506" data-name="Path 506" d="M104.02,255.73q-.224,1.7-.451,3.4a16.138,16.138,0,0,1-.308,1.8c-.09.367-.206.727-.288,1.094H98.461a5.2,5.2,0,0,1,.043-.614,10.926,10.926,0,0,1,.563-2.132q.788-2.334,1.573-4.672c.224-.664.416-1.358.662-2.016.043-.122.09-.243.14-.361.262-.632.988-.373,1.525-.278a1.351,1.351,0,0,1,.426.133,1.151,1.151,0,0,1,.4.415,4.478,4.478,0,0,1,.267,2.91Z" transform="translate(-90.881 -219.818)" fill="#d0cde1"/>
      <path id="Path_507" data-name="Path 507" d="M170.451,289.2c.007.027.081.31.2.709h-3.762c1.864-.352,3.557-.711,3.557-.711Z" transform="translate(-143.475 -247.696)" fill="#2f2e41"/>
      <ellipse id="Ellipse_142" data-name="Ellipse 142" cx="4.27" cy="2.524" rx="4.27" ry="2.524" transform="translate(17.458 14.46)" fill="#2f2e41"/>
      <rect id="Rectangle_147" data-name="Rectangle 147" width="97.726" height="72.66" transform="translate(62.605 27.497)" fill="#4f44ff"/>
      <ellipse id="Ellipse_143" data-name="Ellipse 143" cx="11.436" cy="1.331" rx="11.436" ry="1.331" transform="translate(134.686 92.548)" opacity="0.1"/>
      <rect id="Rectangle_148" data-name="Rectangle 148" width="28.936" height="34.618" transform="translate(68.843 34.154)" fill="#f2f2f2"/>
      <path id="Path_508" data-name="Path 508" d="M394.1,289.95a.411.411,0,0,0,.5-.226c.4-.692-.337-1.585-.177-2.386.128-.642.792-1.022.928-1.662.132-.622-.275-1.322,0-1.885a1.091,1.091,0,0,1,1.2-.479,13.494,13.494,0,0,0,1.332.325,6.03,6.03,0,0,0,1.776-.4,1.494,1.494,0,0,1,1.663.457c.447.7-.006,1.676.149,2.514.124.666.631,1.217.642,1.9,0,.241-.574.047-.544.286s-.243.029-.024,0a.465.465,0,0,0,.329-.429c.026-.2.367-.265.363-.467-.009-.471.767-.154.895-.6a4.979,4.979,0,0,0-.17-3.184,6.727,6.727,0,0,1-.5-1.295,16.056,16.056,0,0,0-.123-1.9,2.106,2.106,0,0,0-1.871-1.311c-.779-.084-1.57.066-2.344-.058a9.391,9.391,0,0,0-2.065-.393,3.365,3.365,0,0,0-2.152,1.318,19.2,19.2,0,0,1-1.736,2,3.515,3.515,0,0,0-.557.526,2.219,2.219,0,0,0-.277,1.665c.094.573.3,1.12.383,1.7.081.54.056,1.092.091,1.638a3.081,3.081,0,0,0,.438,1.546,1.3,1.3,0,0,0,1.034.593c.14,0,.258-.135.4-.1C393.87,289.687,393.947,289.871,394.1,289.95Z" transform="translate(-315.944 -239.902)" fill="#2f2e41"/>
      <path id="Path_509" data-name="Path 509" d="M375.913,380.563c.126-1.9.222-3.327.222-3.327l.818-2.366,2.625,5.693Z" transform="translate(-304.116 -311.601)" fill="#575a89"/>
      <path id="Path_510" data-name="Path 510" d="M375.913,380.563c.126-1.9.222-3.327.222-3.327l.818-2.366,2.625,5.693Z" transform="translate(-304.116 -311.601)" opacity="0.1"/>
      <path id="Path_511" data-name="Path 511" d="M402.2,318.71s2.448,6.84,1.038,8.142,7.862-2.2,7.862-2.2l-.223-.9s-3.041-1.3-1.558-5.048S402.2,318.71,402.2,318.71Z" transform="translate(-324.316 -268.468)" fill="#a0616a"/>
      <path id="Path_512" data-name="Path 512" d="M402.2,318.71s2.448,6.84,1.038,8.142,7.862-2.2,7.862-2.2l-.223-.9s-3.041-1.3-1.558-5.048S402.2,318.71,402.2,318.71Z" transform="translate(-324.316 -268.468)" opacity="0.1"/>
      <ellipse id="Ellipse_144" data-name="Ellipse 144" cx="5.192" cy="5.7" rx="5.192" ry="5.7" transform="translate(76.175 41.611)" fill="#a0616a"/>
      <path id="Path_513" data-name="Path 513" d="M398.812,346.106l-.057,1.244c-.074,1.611-.208,4.63-.341,8.112H378.286a11.3,11.3,0,0,1-1.28-2.516,2.946,2.946,0,0,1-.151-.81c-.111-2.159,1.651-5.172,2.9-5.459,1.409-.327,4.079-3.42,4.079-3.42a.7.7,0,0,0,.34.563v0a1.279,1.279,0,0,0,.7.167c.87,0,4.7-1.938,5.924-2.572.241-.124.381-.2.381-.2a27.079,27.079,0,0,0,4.377,1.63,4.845,4.845,0,0,1,3.263,3.256Z" transform="translate(-304.836 -286.5)" fill="#578984"/>
      <path id="Path_514" data-name="Path 514" d="M390.258,287.707a.411.411,0,0,0,.5-.226c.4-.692-.337-1.585-.177-2.386.128-.642.792-1.023.928-1.662.132-.622-.275-1.322,0-1.885a1.091,1.091,0,0,1,1.2-.479,13.478,13.478,0,0,0,1.332.325,6.029,6.029,0,0,0,1.776-.4,1.494,1.494,0,0,1,1.663.457c.448.7-.006,1.676.149,2.514.124.666,1.533,1.133,1.661.683a4.979,4.979,0,0,0-.17-3.184,6.732,6.732,0,0,1-.5-1.295,16.03,16.03,0,0,0-.123-1.9,2.106,2.106,0,0,0-1.871-1.311c-.779-.084-1.57.066-2.344-.058a9.394,9.394,0,0,0-2.065-.393,3.365,3.365,0,0,0-2.152,1.318,19.2,19.2,0,0,1-1.736,2,3.517,3.517,0,0,0-.557.526,2.219,2.219,0,0,0-.277,1.665c.094.573.3,1.12.383,1.7.081.54.056,1.092.091,1.638a3.081,3.081,0,0,0,.438,1.546,1.3,1.3,0,0,0,1.034.593c.14,0,.258-.135.4-.1C390.024,287.444,390.1,287.628,390.258,287.707Z" transform="translate(-312.988 -238.229)" fill="#2f2e41"/>
      <path id="Path_515" data-name="Path 515" d="M460.641,369.808h-5.874c-.447-3.6-.816-7.361-.816-7.361l1.187-.571,2.412-1.425s.177.46.461,1.244C458.617,363.371,459.717,366.525,460.641,369.808Z" transform="translate(-364.092 -300.846)" opacity="0.1"/>
      <path id="Path_516" data-name="Path 516" d="M456.6,367.178h-6.629c-.982-3.937-1.951-8.217-1.951-8.217l2.523-2.035,2.966.9S455.247,362.358,456.6,367.178Z" transform="translate(-359.535 -298.216)" fill="#575a89"/>
      <rect id="Rectangle_149" data-name="Rectangle 149" width="27.897" height="2.092" transform="translate(115.626 34.154)" fill="#4f44ff"/>
      <rect id="Rectangle_150" data-name="Rectangle 150" width="9.877" height="2.092" transform="translate(69.189 74.098)" fill="#4f44ff"/>
      <path id="Path_540" data-name="Path 540" d="M0,0H28.243V2.092H0Z" transform="translate(69.189 77.902)" fill="#fff"/>
      <rect id="Rectangle_152" data-name="Rectangle 152" width="40.199" height="2.092" transform="translate(109.042 41.762)" fill="#f2f2f2"/>
      <rect id="Rectangle_153" data-name="Rectangle 153" width="40.199" height="2.092" transform="translate(109.042 47.659)" fill="#f2f2f2"/>
      <rect id="Rectangle_154" data-name="Rectangle 154" width="40.199" height="2.092" transform="translate(109.042 53.555)" fill="#f2f2f2"/>
      <rect id="Rectangle_155" data-name="Rectangle 155" width="40.199" height="2.092" transform="translate(109.042 59.452)" fill="#f2f2f2"/>
      <rect id="Rectangle_156" data-name="Rectangle 156" width="40.199" height="2.092" transform="translate(109.042 65.348)" fill="#f2f2f2"/>
      <rect id="Rectangle_157" data-name="Rectangle 157" width="40.199" height="2.092" transform="translate(109.042 71.245)" fill="#f2f2f2"/>
      <rect id="Rectangle_158" data-name="Rectangle 158" width="40.199" height="2.092" transform="translate(109.042 77.141)" fill="#f2f2f2"/>
      <path id="Path_517" data-name="Path 517" d="M682.914,428.865l-10.989,12.063-4.619-5.07a1.482,1.482,0,0,0-2.233,0l-.166-.272a2.246,2.246,0,0,0,.166,2.724l5.993,6.578a1.13,1.13,0,0,0,1.7,0l12.376-13.572a2.068,2.068,0,0,0,.224-2.594h0A1.746,1.746,0,0,0,682.914,428.865Z" transform="translate(-525.925 -351.441)" fill="#57b894"/>
      <path id="Path_518" data-name="Path 518" d="M682.914,428.865l-10.989,12.063-4.619-5.07a1.482,1.482,0,0,0-2.233,0l-.166-.272a2.246,2.246,0,0,0,.166,2.724l5.993,6.578a1.13,1.13,0,0,0,1.7,0l12.376-13.572a2.068,2.068,0,0,0,.224-2.594h0A1.746,1.746,0,0,0,682.914,428.865Z" transform="translate(-525.925 -351.441)" opacity="0.1"/>
      <path id="Path_519" data-name="Path 519" d="M683.217,426.986l-10.989,12.063-4.619-5.07a1.482,1.482,0,0,0-2.233,0h0a1.855,1.855,0,0,0,0,2.451l5.993,6.578a1.13,1.13,0,0,0,1.7,0l12.376-13.572a1.855,1.855,0,0,0,0-2.451h0a1.481,1.481,0,0,0-2.232,0Z" transform="translate(-526.227 -350.097)" fill="#57b894"/>
      <path id="Path_520" data-name="Path 520" d="M839.011,654.854c0,13.6-17.271,9.394-38.417,9.394s-38.16,4.207-38.16-9.394,17.268-16.56,38.414-16.56S839.011,641.253,839.011,654.854Z" transform="translate(-601.176 -508.096)" opacity="0.1"/>
      <path id="Path_521" data-name="Path 521" d="M839.011,644.854c0,13.6-17.271,9.394-38.417,9.394s-38.16,4.207-38.16-9.394,17.268-16.56,38.414-16.56S839.011,631.253,839.011,644.854Z" transform="translate(-601.176 -500.637)" fill="#4f44ff"/>
      <path id="Path_522" data-name="Path 522" d="M748.412,525.762l-.782,1s-9.515.981-9.129,2.676,11.456-2.261,11.456-2.261Z" transform="translate(-582.774 -424.155)" fill="#ffc1c7"/>
      <path id="Path_523" data-name="Path 523" d="M803.741,522.425s-10.169,3.956-15.7,2.261l2.575,5.652s13.13-.424,15.447-2.967S803.741,522.425,803.741,522.425Z" transform="translate(-620.853 -421.666)" fill="#4f44ff"/>
      <path id="Path_524" data-name="Path 524" d="M803.741,522.425s-10.169,3.956-15.7,2.261l2.575,5.652s13.13-.424,15.447-2.967S803.741,522.425,803.741,522.425Z" transform="translate(-620.853 -421.666)" opacity="0.1"/>
      <ellipse id="Ellipse_145" data-name="Ellipse 145" cx="6.822" cy="7.489" rx="6.822" ry="7.489" transform="translate(169.179 55.471)" fill="#ffc1c7"/>
      <path id="Path_525" data-name="Path 525" d="M816.263,391.278a5.861,5.861,0,0,0,.884,1.345,11.313,11.313,0,0,0,3.289,2.7,102.788,102.788,0,0,1-11.717,1.913,7.023,7.023,0,0,0-.866-4.784,26.407,26.407,0,0,1-2.131-4.414l4.611.136c.837.025,1.676.052,2.513.007a9.665,9.665,0,0,1,2.25-.293C816.329,388.209,815.724,390.077,816.263,391.278Z" transform="translate(-634.444 -321.287)" fill="#ffc1c7"/>
      <path id="Path_526" data-name="Path 526" d="M752.328,533.443l3.862,5.087s6.436,16.533-7.595,18.228a68.192,68.192,0,0,1-24.457-1.272s-5.664-2.967-5.793-.707a39.291,39.291,0,0,1-3.733,14.837l-2.7,6.783a4.63,4.63,0,0,0-1.03,3.674c.386,2.12-8.624,2.826-8.5,0a11.315,11.315,0,0,0,1.287-3.815c0-1.413,2.06-4.8,2.06-4.8l3.733-20.348s-.257-10.457,8.5-8.478S739.2,542.2,739.2,542.2l2.832-10.88Z" transform="translate(-555.024 -428.303)" fill="#2f2e41"/>
      <path id="Path_527" data-name="Path 527" d="M752.328,533.443l3.862,5.087s6.436,16.533-7.595,18.228a68.192,68.192,0,0,1-24.457-1.272s-5.664-2.967-5.793-.707a39.291,39.291,0,0,1-3.733,14.837l-2.7,6.783a4.63,4.63,0,0,0-1.03,3.674c.386,2.12-8.624,2.826-8.5,0a11.315,11.315,0,0,0,1.287-3.815c0-1.413,2.06-4.8,2.06-4.8l3.733-20.348s-.257-10.457,8.5-8.478S739.2,542.2,739.2,542.2l2.832-10.88Z" transform="translate(-555.024 -428.303)" opacity="0.1"/>
      <path id="Path_528" data-name="Path 528" d="M698.375,534.848s11.778-4.856,18.343,5.459c0,0,1.673,15.967-5.02,16.674s-15.447.565-17.506-1.837-15.061-9.185-15.061-9.185-6.472-3.624-7.741,1.085a54.82,54.82,0,0,0-1.4,5.839s-6.694,5.37-9.4,6.359c0,0-1.8,2.826-2.832,2.826s-7.337,1.554-6.694-3.674L661.5,547.938l10.427-11.163s2.961-4.8,10.555-2.261a145.526,145.526,0,0,0,15.318,4.1Z" transform="translate(-515.552 -430.081)" fill="#2f2e41"/>
      <path id="Path_529" data-name="Path 529" d="M676.475,720.864s2.446,6.783.386,7.63-6.436.283-6.436.283a53.771,53.771,0,0,0-6.436-.565c-1.287.141-6.565-.989-5.792-3.25s4.763-1.7,4.763-1.7l3.6-1.837s.386-1.413,1.287-.848S671.326,723.266,676.475,720.864Z" transform="translate(-521.006 -569.376)" fill="#cbceda"/>
      <path id="Path_530" data-name="Path 530" d="M629.97,633.984s2.7,6.641-1.673,6.076-7.723-1.554-9.011-1.7c-1.238-.136-4.739-1.449-4.2-4.064a2.547,2.547,0,0,0,.035-.513c0-.351.434-1.04,3.91-.934,0,0,2.574,0,3.6-1.978C622.633,630.876,626.494,636.245,629.97,633.984Z" transform="translate(-487.888 -502.562)" fill="#cbceda"/>
      <path id="Path_531" data-name="Path 531" d="M805.834,412.351s9.268-6.359,16.991,0S835.7,447.677,835.7,447.677l-17.893-4.38s-.772-3.391-1.8-3.957-1.158-2.967-1.158-2.967-5.535-1.837-5.149-8.9S805.834,412.351,805.834,412.351Z" transform="translate(-634.531 -337.451)" fill="#4f44ff"/>
      <path id="Path_532" data-name="Path 532" d="M788.458,421.76H783.7s-2.832,3.533-3.218,12.435l-1.545,7.065s-3.218,8.478-1.287,9.891,5.664,1.272,6.436-1.554,6.05-19.217,6.05-19.217Z" transform="translate(-612.393 -346.577)" fill="#4f44ff"/>
      <path id="Path_533" data-name="Path 533" d="M778.554,333.629a6.423,6.423,0,0,1,7.134,1.284c2.472,2.422,2.971,6.373,3.6,9.945s1.882,7.55,4.949,8.927a11.765,11.765,0,0,1-4.155-.133l4.634,4.559-7.807-2.793c-2.45-.877-5.023-1.764-7.561-1.269-4.2.82-7.13,5.158-11.167,6.682l.449-2.4-2.709-.023a5.713,5.713,0,0,0,1.552-2,1.465,1.465,0,0,0-1.036-.6c-1.129-7.731,3.053-15.373,8.5-20.424a7.693,7.693,0,0,1,3.643-2.2,3.077,3.077,0,0,1,3.482,1.878" transform="translate(-603.853 -280.416)" fill="#2f2e41"/>
      <path id="Path_539" data-name="Path 539" d="M390.847,734.757c-3.327.029-7.731-.569-8.618-1.162-.675-.451-.944-2.071-1.034-2.819l-.1,0s.187,2.609,1.073,3.2,5.291,1.191,8.618,1.162c.961-.008,1.292-.384,1.274-.939C391.929,734.541,391.562,734.751,390.847,734.757Z" transform="translate(-308.1 -577.081)" opacity="0.2"/>
    </g>
  </g>
</svg>
